<?xml version="1.0" encoding="UTF-8" standalone="no"?>
<!DOCTYPE svg PUBLIC "-//W3C//DTD SVG 1.1//EN" "http://www.w3.org/Graphics/SVG/1.1/DTD/svg11.dtd">
 <svg xmlns="http://www.w3.org/2000/svg" xmlns:xlink="http://www.w3.org/1999/xlink" width="135.8" height="410"><path fill="black" d="M125.60 296L111.60 296L111.60 258.80L11.20 258.80L11.20 246L20.80 246Q33.60 246 43.70 242.40Q53.80 238.80 61 232.40Q68.20 226 72 217.20Q75.80 208.40 75.80 198.20L75.80 198.20Q75.80 183.20 68.50 175.40Q61.20 167.60 50 167.60L50 167.60Q39 167.60 31.60 175.10Q24.20 182.60 24.20 195.80L24.20 195.80L10.20 195.80Q10.20 183.80 15 174.60Q19.80 165.40 28.80 160.10Q37.80 154.80 50 154.80L50 154.80Q62.60 154.80 71.50 160.10Q80.40 165.40 85.10 174.90Q89.80 184.40 89.80 197L89.80 197Q89.80 205.60 87.20 214.70Q84.60 223.80 78.70 231.90Q72.80 240 62.40 246L62.40 246L111.60 246L111.60 157.20L125.60 157.20L125.60 296Z"/></svg>